<?xml version="1.0" standalone="no"?><svg xmlns="http://www.w3.org/2000/svg" viewBox="0 0 1440 320"><path fill="#414141" fill-opacity="1" d="M0,192L40,202.7C80,213,160,235,240,245.3C320,256,400,256,480,229.3C560,203,640,149,720,133.3C800,117,880,139,960,170.7C1040,203,1120,245,1200,218.7C1280,192,1360,96,1400,48L1440,0L1440,320L1400,320C1360,320,1280,320,1200,320C1120,320,1040,320,960,320C880,320,800,320,720,320C640,320,560,320,480,320C400,320,320,320,240,320C160,320,80,320,40,320L0,320Z"></path></svg>